<svg width="15" height="15" viewBox="0 0 15 15" fill="none" xmlns="http://www.w3.org/2000/svg">
<g clip-path="url(#clip0)">
<mask id="path-1-inside-1" fill="white">
<path d="M2.14844 14.6667H6.93229V9.45312H5.21354V7.73437H6.93229V5.58594C6.93229 4.40128 7.89607 3.4375 9.08073 3.4375H11.2292V5.15625H9.51042C9.03653 5.15625 8.65104 5.54174 8.65104 6.01562V7.73437H11.1516L10.8652 9.45312H8.65104V14.6667H12.5182C13.7029 14.6667 14.6667 13.7029 14.6667 12.5182V2.14844C14.6667 0.963776 13.7029 0 12.5182 0H2.14844C0.963776 0 0 0.963776 0 2.14844V12.5182C0 13.7029 0.963776 14.6667 2.14844 14.6667ZM0.859375 2.14844C0.859375 1.43766 1.43766 0.859375 2.14844 0.859375H12.5182C13.229 0.859375 13.8073 1.43766 13.8073 2.14844V12.5182C13.8073 13.229 13.229 13.8073 12.5182 13.8073H9.51042V10.3125H11.5932L12.1661 6.875H9.51042V6.01562H12.0885V2.57812H9.08073C7.42218 2.57812 6.07292 3.92739 6.07292 5.58594V6.875H4.35417V10.3125H6.07292V13.8073H2.14844C1.43766 13.8073 0.859375 13.229 0.859375 12.5182V2.14844Z"/>
</mask>
<path d="M2.14844 14.6667H6.93229V9.45312H5.21354V7.73437H6.93229V5.58594C6.93229 4.40128 7.89607 3.4375 9.08073 3.4375H11.2292V5.15625H9.51042C9.03653 5.15625 8.65104 5.54174 8.65104 6.01562V7.73437H11.1516L10.8652 9.45312H8.65104V14.6667H12.5182C13.7029 14.6667 14.6667 13.7029 14.6667 12.5182V2.14844C14.6667 0.963776 13.7029 0 12.5182 0H2.14844C0.963776 0 0 0.963776 0 2.14844V12.5182C0 13.7029 0.963776 14.6667 2.14844 14.6667ZM0.859375 2.14844C0.859375 1.43766 1.43766 0.859375 2.14844 0.859375H12.5182C13.229 0.859375 13.8073 1.43766 13.8073 2.14844V12.5182C13.8073 13.229 13.229 13.8073 12.5182 13.8073H9.51042V10.3125H11.5932L12.1661 6.875H9.51042V6.01562H12.0885V2.57812H9.08073C7.42218 2.57812 6.07292 3.92739 6.07292 5.58594V6.875H4.35417V10.3125H6.07292V13.8073H2.14844C1.43766 13.8073 0.859375 13.229 0.859375 12.5182V2.14844Z" fill="white"/>
<path d="M6.93229 14.6667V15.6667H7.93229V14.6667H6.93229ZM6.93229 9.45312H7.93229V8.45312H6.93229V9.45312ZM5.21354 9.45312H4.21354V10.4531H5.21354V9.45312ZM5.21354 7.73437V6.73437H4.21354V7.73437H5.21354ZM6.93229 7.73437V8.73437H7.93229V7.73437H6.93229ZM11.2292 3.4375H12.2292V2.4375H11.2292V3.4375ZM11.2292 5.15625V6.15625H12.2292V5.15625H11.2292ZM8.65104 7.73437H7.65104V8.73437H8.65104V7.73437ZM11.1516 7.73437L12.138 7.89877L12.3321 6.73437H11.1516V7.73437ZM10.8652 9.45312V10.4531H11.7123L11.8516 9.61752L10.8652 9.45312ZM8.65104 9.45312V8.45312H7.65104V9.45312H8.65104ZM8.65104 14.6667H7.65104V15.6667H8.65104V14.6667ZM9.51042 13.8073H8.51042V14.8073H9.51042V13.8073ZM9.51042 10.3125V9.3125H8.51042V10.3125H9.51042ZM11.5932 10.3125V11.3125H12.4403L12.5796 10.4769L11.5932 10.3125ZM12.1661 6.875L13.1525 7.0394L13.3465 5.875H12.1661V6.875ZM9.51042 6.875H8.51042V7.875H9.51042V6.875ZM9.51042 6.01562V5.01562H8.51042V6.01562H9.51042ZM12.0885 6.01562V7.01562H13.0885V6.01562H12.0885ZM12.0885 2.57812H13.0885V1.57812H12.0885V2.57812ZM6.07292 6.875V7.875H7.07292V6.875H6.07292ZM4.35417 6.875V5.875H3.35417V6.875H4.35417ZM4.35417 10.3125H3.35417V11.3125H4.35417V10.3125ZM6.07292 10.3125H7.07292V9.3125H6.07292V10.3125ZM6.07292 13.8073V14.8073H7.07292V13.8073H6.07292ZM2.14844 15.6667H6.93229V13.6667H2.14844V15.6667ZM7.93229 14.6667V9.45312H5.93229V14.6667H7.93229ZM6.93229 8.45312H5.21354V10.4531H6.93229V8.45312ZM6.21354 9.45312V7.73437H4.21354V9.45312H6.21354ZM5.21354 8.73437H6.93229V6.73437H5.21354V8.73437ZM7.93229 7.73437V5.58594H5.93229V7.73437H7.93229ZM7.93229 5.58594C7.93229 4.95356 8.44835 4.4375 9.08073 4.4375V2.4375C7.34378 2.4375 5.93229 3.84899 5.93229 5.58594H7.93229ZM9.08073 4.4375H11.2292V2.4375H9.08073V4.4375ZM10.2292 3.4375V5.15625H12.2292V3.4375H10.2292ZM11.2292 4.15625H9.51042V6.15625H11.2292V4.15625ZM9.51042 4.15625C8.48424 4.15625 7.65104 4.98945 7.65104 6.01562H9.65104C9.65104 6.09402 9.58881 6.15625 9.51042 6.15625V4.15625ZM7.65104 6.01562V7.73437H9.65104V6.01562H7.65104ZM8.65104 8.73437H11.1516V6.73437H8.65104V8.73437ZM10.1652 7.56998L9.87877 9.28873L11.8516 9.61752L12.138 7.89877L10.1652 7.56998ZM10.8652 8.45312H8.65104V10.4531H10.8652V8.45312ZM7.65104 9.45312V14.6667H9.65104V9.45312H7.65104ZM8.65104 15.6667H12.5182V13.6667H8.65104V15.6667ZM12.5182 15.6667C14.2552 15.6667 15.6667 14.2552 15.6667 12.5182H13.6667C13.6667 13.1506 13.1506 13.6667 12.5182 13.6667V15.6667ZM15.6667 12.5182V2.14844H13.6667V12.5182H15.6667ZM15.6667 2.14844C15.6667 0.411491 14.2552 -1 12.5182 -1V1C13.1506 1 13.6667 1.51606 13.6667 2.14844H15.6667ZM12.5182 -1H2.14844V1H12.5182V-1ZM2.14844 -1C0.411491 -1 -1 0.411491 -1 2.14844H1C1 1.51606 1.51606 1 2.14844 1V-1ZM-1 2.14844V12.5182H1V2.14844H-1ZM-1 12.5182C-1 14.2552 0.411491 15.6667 2.14844 15.6667V13.6667C1.51606 13.6667 1 13.1506 1 12.5182H-1ZM1.85937 2.14844C1.85937 1.98995 1.98995 1.85937 2.14844 1.85937V-0.140625C0.885378 -0.140625 -0.140625 0.885378 -0.140625 2.14844H1.85937ZM2.14844 1.85937H12.5182V-0.140625H2.14844V1.85937ZM12.5182 1.85937C12.6767 1.85937 12.8073 1.98995 12.8073 2.14844H14.8073C14.8073 0.885378 13.7813 -0.140625 12.5182 -0.140625V1.85937ZM12.8073 2.14844V12.5182H14.8073V2.14844H12.8073ZM12.8073 12.5182C12.8073 12.6767 12.6767 12.8073 12.5182 12.8073V14.8073C13.7813 14.8073 14.8073 13.7813 14.8073 12.5182H12.8073ZM12.5182 12.8073H9.51042V14.8073H12.5182V12.8073ZM10.5104 13.8073V10.3125H8.51042V13.8073H10.5104ZM9.51042 11.3125H11.5932V9.3125H9.51042V11.3125ZM12.5796 10.4769L13.1525 7.0394L11.1797 6.7106L10.6068 10.1481L12.5796 10.4769ZM12.1661 5.875H9.51042V7.875H12.1661V5.875ZM10.5104 6.875V6.01562H8.51042V6.875H10.5104ZM9.51042 7.01562H12.0885V5.01562H9.51042V7.01562ZM13.0885 6.01562V2.57812H11.0885V6.01562H13.0885ZM12.0885 1.57812H9.08073V3.57812H12.0885V1.57812ZM9.08073 1.57812C6.8699 1.57812 5.07292 3.3751 5.07292 5.58594H7.07292C7.07292 4.47967 7.97446 3.57812 9.08073 3.57812V1.57812ZM5.07292 5.58594V6.875H7.07292V5.58594H5.07292ZM6.07292 5.875H4.35417V7.875H6.07292V5.875ZM3.35417 6.875V10.3125H5.35417V6.875H3.35417ZM4.35417 11.3125H6.07292V9.3125H4.35417V11.3125ZM5.07292 10.3125V13.8073H7.07292V10.3125H5.07292ZM6.07292 12.8073H2.14844V14.8073H6.07292V12.8073ZM2.14844 12.8073C1.98995 12.8073 1.85937 12.6767 1.85937 12.5182H-0.140625C-0.140625 13.7813 0.885378 14.8073 2.14844 14.8073V12.8073ZM1.85937 12.5182V2.14844H-0.140625V12.5182H1.85937Z" fill="white" mask="url(#path-1-inside-1)"/>
<path d="M6.93229 14.6667V15.6667H7.93229V14.6667H6.93229ZM6.93229 9.45312H7.93229V8.45312H6.93229V9.45312ZM5.21354 9.45312H4.21354V10.4531H5.21354V9.45312ZM5.21354 7.73437V6.73437H4.21354V7.73437H5.21354ZM6.93229 7.73437V8.73437H7.93229V7.73437H6.93229ZM11.2292 3.4375H12.2292V2.4375H11.2292V3.4375ZM11.2292 5.15625V6.15625H12.2292V5.15625H11.2292ZM8.65104 7.73437H7.65104V8.73437H8.65104V7.73437ZM11.1516 7.73437L12.138 7.89877L12.3321 6.73437H11.1516V7.73437ZM10.8652 9.45312V10.4531H11.7123L11.8516 9.61752L10.8652 9.45312ZM8.65104 9.45312V8.45312H7.65104V9.45312H8.65104ZM8.65104 14.6667H7.65104V15.6667H8.65104V14.6667ZM9.51042 13.8073H8.51042V14.8073H9.51042V13.8073ZM9.51042 10.3125V9.3125H8.51042V10.3125H9.51042ZM11.5932 10.3125V11.3125H12.4403L12.5796 10.4769L11.5932 10.3125ZM12.1661 6.875L13.1525 7.0394L13.3465 5.875H12.1661V6.875ZM9.51042 6.875H8.51042V7.875H9.51042V6.875ZM9.51042 6.01562V5.01562H8.51042V6.01562H9.51042ZM12.0885 6.01562V7.01562H13.0885V6.01562H12.0885ZM12.0885 2.57812H13.0885V1.57812H12.0885V2.57812ZM6.07292 6.875V7.875H7.07292V6.875H6.07292ZM4.35417 6.875V5.875H3.35417V6.875H4.35417ZM4.35417 10.3125H3.35417V11.3125H4.35417V10.3125ZM6.07292 10.3125H7.07292V9.3125H6.07292V10.3125ZM6.07292 13.8073V14.8073H7.07292V13.8073H6.07292ZM2.14844 15.6667H6.93229V13.6667H2.14844V15.6667ZM7.93229 14.6667V9.45312H5.93229V14.6667H7.93229ZM6.93229 8.45312H5.21354V10.4531H6.93229V8.45312ZM6.21354 9.45312V7.73437H4.21354V9.45312H6.21354ZM5.21354 8.73437H6.93229V6.73437H5.21354V8.73437ZM7.93229 7.73437V5.58594H5.93229V7.73437H7.93229ZM7.93229 5.58594C7.93229 4.95356 8.44835 4.4375 9.08073 4.4375V2.4375C7.34378 2.4375 5.93229 3.84899 5.93229 5.58594H7.93229ZM9.08073 4.4375H11.2292V2.4375H9.08073V4.4375ZM10.2292 3.4375V5.15625H12.2292V3.4375H10.2292ZM11.2292 4.15625H9.51042V6.15625H11.2292V4.15625ZM9.51042 4.15625C8.48424 4.15625 7.65104 4.98945 7.65104 6.01562H9.65104C9.65104 6.09402 9.58881 6.15625 9.51042 6.15625V4.15625ZM7.65104 6.01562V7.73437H9.65104V6.01562H7.65104ZM8.65104 8.73437H11.1516V6.73437H8.65104V8.73437ZM10.1652 7.56998L9.87877 9.28873L11.8516 9.61752L12.138 7.89877L10.1652 7.56998ZM10.8652 8.45312H8.65104V10.4531H10.8652V8.45312ZM7.65104 9.45312V14.6667H9.65104V9.45312H7.65104ZM8.65104 15.6667H12.5182V13.6667H8.65104V15.6667ZM12.5182 15.6667C14.2552 15.6667 15.6667 14.2552 15.6667 12.5182H13.6667C13.6667 13.1506 13.1506 13.6667 12.5182 13.6667V15.6667ZM15.6667 12.5182V2.14844H13.6667V12.5182H15.6667ZM15.6667 2.14844C15.6667 0.411491 14.2552 -1 12.5182 -1V1C13.1506 1 13.6667 1.51606 13.6667 2.14844H15.6667ZM12.5182 -1H2.14844V1H12.5182V-1ZM2.14844 -1C0.411491 -1 -1 0.411491 -1 2.14844H1C1 1.51606 1.51606 1 2.14844 1V-1ZM-1 2.14844V12.5182H1V2.14844H-1ZM-1 12.5182C-1 14.2552 0.411491 15.6667 2.14844 15.6667V13.6667C1.51606 13.6667 1 13.1506 1 12.5182H-1ZM1.85937 2.14844C1.85937 1.98995 1.98995 1.85937 2.14844 1.85937V-0.140625C0.885378 -0.140625 -0.140625 0.885378 -0.140625 2.14844H1.85937ZM2.14844 1.85937H12.5182V-0.140625H2.14844V1.85937ZM12.5182 1.85937C12.6767 1.85937 12.8073 1.98995 12.8073 2.14844H14.8073C14.8073 0.885378 13.7813 -0.140625 12.5182 -0.140625V1.85937ZM12.8073 2.14844V12.5182H14.8073V2.14844H12.8073ZM12.8073 12.5182C12.8073 12.6767 12.6767 12.8073 12.5182 12.8073V14.8073C13.7813 14.8073 14.8073 13.7813 14.8073 12.5182H12.8073ZM12.5182 12.8073H9.51042V14.8073H12.5182V12.8073ZM10.5104 13.8073V10.3125H8.51042V13.8073H10.5104ZM9.51042 11.3125H11.5932V9.3125H9.51042V11.3125ZM12.5796 10.4769L13.1525 7.0394L11.1797 6.7106L10.6068 10.1481L12.5796 10.4769ZM12.1661 5.875H9.51042V7.875H12.1661V5.875ZM10.5104 6.875V6.01562H8.51042V6.875H10.5104ZM9.51042 7.01562H12.0885V5.01562H9.51042V7.01562ZM13.0885 6.01562V2.57812H11.0885V6.01562H13.0885ZM12.0885 1.57812H9.08073V3.57812H12.0885V1.57812ZM9.08073 1.57812C6.8699 1.57812 5.07292 3.3751 5.07292 5.58594H7.07292C7.07292 4.47967 7.97446 3.57812 9.08073 3.57812V1.57812ZM5.07292 5.58594V6.875H7.07292V5.58594H5.07292ZM6.07292 5.875H4.35417V7.875H6.07292V5.875ZM3.35417 6.875V10.3125H5.35417V6.875H3.35417ZM4.35417 11.3125H6.07292V9.3125H4.35417V11.3125ZM5.07292 10.3125V13.8073H7.07292V10.3125H5.07292ZM6.07292 12.8073H2.14844V14.8073H6.07292V12.8073ZM2.14844 12.8073C1.98995 12.8073 1.85937 12.6767 1.85937 12.5182H-0.140625C-0.140625 13.7813 0.885378 14.8073 2.14844 14.8073V12.8073ZM1.85937 12.5182V2.14844H-0.140625V12.5182H1.85937Z" fill="white" fill-opacity="0.2" mask="url(#path-1-inside-1)"/>
</g>
<defs>
<clipPath id="clip0">
<rect width="14.6667" height="14.6667" fill="white"/>
</clipPath>
</defs>
</svg>
