<svg width="256" height="84" viewBox="0 0 256 84" fill="none" xmlns="http://www.w3.org/2000/svg">
<g opacity="0.7">
<g opacity="0.3">
<line y1="16.324" x2="256" y2="16.324" stroke="black"/>
<line y1="26.9168" x2="256" y2="26.9168" stroke="black"/>
<line y1="38.1328" x2="256" y2="38.1328" stroke="black"/>
<line y1="48.7256" x2="256" y2="48.7256" stroke="black"/>
<line y1="59.3185" x2="256" y2="59.3185" stroke="black"/>
</g>
<g filter="url(#filter0_d)">
<path fill-rule="evenodd" clip-rule="evenodd" d="M15.424 72.9466C16.099 73.0773 16.7943 73.0836 17.476 72.9652C20.392 72.467 22.3428 69.8449 21.8095 67.1544L20.635 61.3061C21.3843 60.8265 22.1335 60.3345 22.8693 59.8363L24.253 66.7371C25.0428 70.6733 22.1943 74.4911 17.9283 75.2198C14.047 75.88 8.85627 73.2268 8.85627 69.247C8.85627 66.9551 10.8745 65.0928 13.3585 65.0928C15.8425 65.0928 17.8608 66.9551 17.8608 69.247C17.8608 70.8414 16.8888 72.249 15.424 72.9466ZM19.2918 41.9801L21.3033 52.0261C20.5675 52.5369 19.825 53.0289 19.069 53.5209L16.531 40.8715C16.9428 40.7345 17.368 40.6847 17.8 40.8341C18.3468 41.0148 18.8598 41.4819 19.2918 41.9801ZM14.425 30.3023L15.0595 33.4725L15.478 33.3977C15.9843 33.3105 16.4973 33.2981 17.0103 33.3417L17.5773 33.3977L17.476 32.8808C17.1183 31.0871 16.8685 29.8601 16.5108 28.0664C19.7778 24.4541 23.4228 19.758 24.334 15.0682C25.792 7.58821 19.4065 2.86103 12.4945 0.612664C11.8668 0.407134 11.2255 0.22029 10.5843 0.0521291C9.46378 -0.234366 8.41752 0.706086 8.70102 1.74619L13.237 24.3856C12.67 25.2637 12.0558 26.117 11.428 26.9516C9.55152 29.4366 7.44552 31.8469 5.92002 34.5312C4.20552 37.5394 3.42252 40.6037 4.52277 43.9233C5.02902 45.443 5.85927 46.8506 6.77727 48.1896C7.75602 49.6159 8.83603 50.9923 9.84853 52.3998C10.9353 53.9133 11.941 55.4641 12.7375 57.127C13.6285 58.9955 14.209 60.92 14.4655 62.9441L14.5398 63.5483L15.1068 63.2306C16.4635 62.477 17.7933 61.6736 19.1028 60.8515C20.6418 59.8799 22.1605 58.8771 23.6455 57.8433C25.4005 56.6225 27.1353 55.3458 28.7823 53.988C29.4978 53.3964 30.1998 52.786 30.868 52.1507C31.4215 51.6213 31.9615 51.0608 32.434 50.4691C33.1225 49.6034 33.7165 48.638 34.2228 47.6727C34.81 46.5391 35.3028 45.3433 35.6605 44.1288C36.3355 41.812 36.5988 39.0716 35.4243 36.8481C34.594 35.2848 33.1968 34.251 31.4553 33.6406C27.8508 32.3701 24.172 33.9956 21.796 36.518C19.3053 34.4004 15.8425 33.1984 13.0345 35.6835C11.536 37.0163 10.9488 38.8411 11.1243 40.722C11.2728 42.3351 12.0085 44.079 13.2168 45.2686L14.1618 46.2028L13.9458 44.9385C13.6623 43.2631 13.858 40.6784 15.775 39.875C16.585 39.5387 17.422 39.4204 18.2658 39.7193C19.5078 40.149 20.4663 41.3635 21.1548 42.36L21.472 42.8209L21.8433 42.3974C22.876 41.2327 24.2935 40.0245 25.9068 39.6321C26.9193 39.383 27.9858 39.4826 28.816 40.1117C29.518 40.6411 29.8825 41.432 29.9568 42.2542C30.004 42.796 29.977 43.3441 29.8758 43.8797C29.3358 46.807 26.7303 49.373 24.388 51.2476C22.4035 52.8358 20.2638 54.1873 18.1173 55.57C17.4558 54.0067 16.639 52.5119 15.6805 51.0732C14.8098 49.7716 13.8378 48.5571 12.8185 47.355C11.9883 46.371 11.1108 45.3994 10.348 44.3717C9.72028 43.5309 9.15327 42.6279 8.86302 41.6376C8.37702 40.012 8.74153 38.4612 9.47053 36.9478C10.0105 35.8205 10.7395 34.743 11.5023 33.734C12.3933 32.5507 13.3923 31.4047 14.425 30.3023ZM15.127 21.1781L11.5428 3.27832C14.2428 4.19386 16.7808 5.65125 17.7393 8.30445C18.2658 9.76184 18.2523 11.35 18.0768 12.8572C17.7325 15.6848 16.5175 18.5934 15.127 21.1781Z" fill="#00A651"/>
</g>
<g filter="url(#filter1_d)">
<path fill-rule="evenodd" clip-rule="evenodd" d="M237.371 28.3093H234.658V16.4571H237.574V23.8188L243.446 16.4571H246.166V28.3093H243.244V20.9912L237.371 28.3093Z" fill="black"/>
</g>
<g filter="url(#filter2_d)">
<path fill-rule="evenodd" clip-rule="evenodd" d="M217.972 28.3093V16.4571H220.894V21.2466L225.133 16.4571H228.799L223.702 22.2431L229.17 28.3093H225.498L220.894 23.2085V28.3093H217.972Z" fill="black"/>
</g>
<g filter="url(#filter3_d)">
<path fill-rule="evenodd" clip-rule="evenodd" d="M202.96 28.3093H200.246V16.4571H203.162V23.8188L209.035 16.4571H211.755V28.3093H208.832V20.9912L202.96 28.3093Z" fill="black"/>
</g>
<g filter="url(#filter4_d)">
<path fill-rule="evenodd" clip-rule="evenodd" d="M188.974 28.5273C187.678 28.5273 186.557 28.2657 185.605 27.7425C184.66 27.2194 183.958 26.4844 183.506 25.5502L186.334 24.5848C186.773 25.5004 187.644 25.955 188.94 25.955C189.635 25.955 190.189 25.8367 190.6 25.5938C191.012 25.3509 191.215 25.027 191.215 24.6222C191.215 24.2921 191.073 24.0118 190.789 23.7689C190.506 23.5261 190.168 23.4077 189.763 23.4077H187.36V21.122H189.709C190.074 21.122 190.378 21.0223 190.621 20.8168C190.857 20.6113 190.978 20.3621 190.978 20.057C190.978 19.6833 190.789 19.3843 190.418 19.1601C190.047 18.9359 189.554 18.8238 188.94 18.8238C187.718 18.8238 186.881 19.2784 186.442 20.194L183.614 19.2286C184.066 18.2944 184.755 17.5595 185.68 17.0363C186.604 16.5131 187.705 16.2516 188.974 16.2516C190.445 16.2516 191.64 16.5816 192.571 17.2356C193.523 17.8771 194.002 18.7055 194.002 19.7082C194.002 20.7358 193.523 21.5829 192.571 22.2493C193.685 22.9281 194.239 23.8375 194.239 24.9772C194.239 26.0173 193.746 26.8768 192.754 27.5494C191.755 28.1972 190.492 28.5273 188.974 28.5273Z" fill="black"/>
</g>
<g filter="url(#filter5_d)">
<path fill-rule="evenodd" clip-rule="evenodd" d="M171.376 24.9399L166.314 16.4571H169.527L172.956 22.3178L175.966 16.4571H179.085L174.94 24.4852C174.252 25.8181 173.489 26.7896 172.639 27.4C171.788 28.0104 170.776 28.3155 169.601 28.3155H168.406V25.843H169.358C170.161 25.8367 170.836 25.5378 171.376 24.9399Z" fill="black"/>
</g>
<g filter="url(#filter6_d)">
<path fill-rule="evenodd" clip-rule="evenodd" d="M149.351 28.3093H146.469V16.4571H149.351L153.664 23.5012L157.957 16.4571H160.84V28.3093H157.957V21.4646L154.616 27.0388H152.692L149.351 21.4646V28.3093Z" fill="black"/>
</g>
<g filter="url(#filter7_d)">
<path fill-rule="evenodd" clip-rule="evenodd" d="M127.015 23.906L125.402 20.2625L123.789 23.906H127.015ZM121.818 28.3093H118.774L124.187 16.4571H126.59L131.983 28.3093H128.953L128.068 26.3101H122.689L121.818 28.3093Z" fill="black"/>
</g>
<g filter="url(#filter8_d)">
<path fill-rule="evenodd" clip-rule="evenodd" d="M101.98 28.3093H101.392V25.8367H101.98C102.54 25.8367 102.958 25.5814 103.228 25.0769C103.512 24.56 103.654 23.6008 103.654 22.2119V16.4571H113.306V28.3093H110.39V18.9297H106.556V22.2119C106.556 24.2423 106.158 25.7682 105.355 26.7834C104.545 27.7986 103.424 28.3093 101.98 28.3093Z" fill="black"/>
</g>
<g filter="url(#filter9_d)">
<path fill-rule="evenodd" clip-rule="evenodd" d="M89.8836 25.9551C90.9366 25.9551 91.8208 25.6188 92.5431 24.9399C93.2518 24.2486 93.6096 23.4015 93.6096 22.3801C93.6096 21.3525 93.2518 20.5054 92.5431 19.839C91.8343 19.1477 90.9433 18.8051 89.8836 18.8051C88.8306 18.8051 87.9531 19.1477 87.2376 19.839C86.5288 20.5054 86.1711 21.3525 86.1711 22.3801C86.1711 23.3953 86.5288 24.2486 87.2376 24.9399C87.9531 25.6188 88.8373 25.9551 89.8836 25.9551ZM85.0776 26.7647C83.7951 25.6001 83.1471 24.1427 83.1471 22.3801C83.1471 20.6175 83.7883 19.1539 85.0776 17.9955C86.3736 16.8184 87.9801 16.2329 89.8836 16.2329C91.7938 16.2329 93.3936 16.8184 94.6896 17.9955C95.9856 19.1601 96.6336 20.6175 96.6336 22.3801C96.6336 24.1427 95.9856 25.6063 94.6896 26.7647C93.3936 27.9419 91.7871 28.5273 89.8836 28.5273C87.9801 28.5273 86.3736 27.9419 85.0776 26.7647Z" fill="black"/>
</g>
<g filter="url(#filter10_d)">
<path fill-rule="evenodd" clip-rule="evenodd" d="M67.5479 28.3093V16.4571H70.4706V21.2466L74.7096 16.4571H78.3816L73.2786 22.2431L78.7461 28.3093H75.0741L70.4706 23.2085V28.3093H67.5479Z" fill="black"/>
</g>
<g filter="url(#filter11_d)">
<path fill-rule="evenodd" clip-rule="evenodd" d="M44.2064 28.3093V16.4571H47.1224V25.8367H51.1994V16.4571H54.1154V25.8367H58.4084V16.4571H61.3311V28.3093H44.2064Z" fill="black"/>
</g>
<g filter="url(#filter12_d)">
<path d="M60.734 47.76L67.772 60H58.728L54.172 51.398H51.928V60H43.904V36.2H51.928V45.074H54.376L59.442 36.2H67.806L60.734 47.76ZM85.66 36.2C87.8587 36.2 89.774 36.5627 91.406 37.288C93.038 38.0133 94.296 39.056 95.18 40.416C96.064 41.776 96.506 43.3627 96.506 45.176C96.506 46.9893 96.064 48.576 95.18 49.936C94.296 51.296 93.038 52.3387 91.406 53.064C89.774 53.7893 87.8587 54.152 85.66 54.152H82.226V60H74.202V36.2H85.66ZM85.15 47.964C86.238 47.964 87.054 47.726 87.598 47.25C88.142 46.7513 88.414 46.06 88.414 45.176C88.414 44.292 88.142 43.612 87.598 43.136C87.054 42.6373 86.238 42.388 85.15 42.388H82.226V47.964H85.15ZM123.486 53.948V60H103.698V36.2H123.044V42.252H111.586V45.04H121.65V50.82H111.586V53.948H123.486ZM148.297 55.852H139.253L137.655 60H129.495L139.899 36.2H147.787L158.191 60H149.895L148.297 55.852ZM146.087 50.072L143.775 44.088L141.463 50.072H146.087ZM184.217 42.422H177.247V60H169.359V42.422H162.389V36.2H184.217V42.422ZM191.623 36.2H199.511V48.576L207.705 36.2H215.253V60H207.365V47.658L199.205 60H191.623V36.2ZM242.532 47.522C243.87 47.998 244.89 48.712 245.592 49.664C246.295 50.5933 246.646 51.738 246.646 53.098C246.646 55.2287 245.796 56.9173 244.096 58.164C242.419 59.388 240.039 60 236.956 60H224.24V36.2H236.31C239.257 36.2 241.535 36.744 243.144 37.832C244.776 38.92 245.592 40.45 245.592 42.422C245.592 43.5553 245.32 44.5527 244.776 45.414C244.255 46.2753 243.507 46.978 242.532 47.522ZM232.128 45.346H235.528C236.843 45.346 237.5 44.768 237.5 43.612C237.5 42.4107 236.843 41.81 235.528 41.81H232.128V45.346ZM236.582 54.39C237.897 54.39 238.554 53.7553 238.554 52.486C238.554 51.262 237.897 50.65 236.582 50.65H232.128V54.39H236.582Z" fill="white"/>
</g>
</g>
<defs>
<filter id="filter0_d" x="0.013855" y="0" width="40.2221" height="83.3205" filterUnits="userSpaceOnUse" color-interpolation-filters="sRGB">
<feFlood flood-opacity="0" result="BackgroundImageFix"/>
<feColorMatrix in="SourceAlpha" type="matrix" values="0 0 0 0 0 0 0 0 0 0 0 0 0 0 0 0 0 0 127 0" result="hardAlpha"/>
<feOffset dy="4"/>
<feGaussianBlur stdDeviation="2"/>
<feComposite in2="hardAlpha" operator="out"/>
<feColorMatrix type="matrix" values="0 0 0 0 0 0 0 0 0 0 0 0 0 0 0 0 0 0 0.25 0"/>
<feBlend mode="normal" in2="BackgroundImageFix" result="effect1_dropShadow"/>
<feBlend mode="normal" in="SourceGraphic" in2="effect1_dropShadow" result="shape"/>
</filter>
<filter id="filter1_d" x="230.658" y="16.4571" width="19.5088" height="19.8522" filterUnits="userSpaceOnUse" color-interpolation-filters="sRGB">
<feFlood flood-opacity="0" result="BackgroundImageFix"/>
<feColorMatrix in="SourceAlpha" type="matrix" values="0 0 0 0 0 0 0 0 0 0 0 0 0 0 0 0 0 0 127 0" result="hardAlpha"/>
<feOffset dy="4"/>
<feGaussianBlur stdDeviation="2"/>
<feComposite in2="hardAlpha" operator="out"/>
<feColorMatrix type="matrix" values="0 0 0 0 0 0 0 0 0 0 0 0 0 0 0 0 0 0 0.25 0"/>
<feBlend mode="normal" in2="BackgroundImageFix" result="effect1_dropShadow"/>
<feBlend mode="normal" in="SourceGraphic" in2="effect1_dropShadow" result="shape"/>
</filter>
<filter id="filter2_d" x="213.972" y="16.4571" width="19.1982" height="19.8522" filterUnits="userSpaceOnUse" color-interpolation-filters="sRGB">
<feFlood flood-opacity="0" result="BackgroundImageFix"/>
<feColorMatrix in="SourceAlpha" type="matrix" values="0 0 0 0 0 0 0 0 0 0 0 0 0 0 0 0 0 0 127 0" result="hardAlpha"/>
<feOffset dy="4"/>
<feGaussianBlur stdDeviation="2"/>
<feComposite in2="hardAlpha" operator="out"/>
<feColorMatrix type="matrix" values="0 0 0 0 0 0 0 0 0 0 0 0 0 0 0 0 0 0 0.25 0"/>
<feBlend mode="normal" in2="BackgroundImageFix" result="effect1_dropShadow"/>
<feBlend mode="normal" in="SourceGraphic" in2="effect1_dropShadow" result="shape"/>
</filter>
<filter id="filter3_d" x="196.246" y="16.4571" width="19.5088" height="19.8522" filterUnits="userSpaceOnUse" color-interpolation-filters="sRGB">
<feFlood flood-opacity="0" result="BackgroundImageFix"/>
<feColorMatrix in="SourceAlpha" type="matrix" values="0 0 0 0 0 0 0 0 0 0 0 0 0 0 0 0 0 0 127 0" result="hardAlpha"/>
<feOffset dy="4"/>
<feGaussianBlur stdDeviation="2"/>
<feComposite in2="hardAlpha" operator="out"/>
<feColorMatrix type="matrix" values="0 0 0 0 0 0 0 0 0 0 0 0 0 0 0 0 0 0 0.25 0"/>
<feBlend mode="normal" in2="BackgroundImageFix" result="effect1_dropShadow"/>
<feBlend mode="normal" in="SourceGraphic" in2="effect1_dropShadow" result="shape"/>
</filter>
<filter id="filter4_d" x="179.506" y="16.2516" width="18.7325" height="20.2757" filterUnits="userSpaceOnUse" color-interpolation-filters="sRGB">
<feFlood flood-opacity="0" result="BackgroundImageFix"/>
<feColorMatrix in="SourceAlpha" type="matrix" values="0 0 0 0 0 0 0 0 0 0 0 0 0 0 0 0 0 0 127 0" result="hardAlpha"/>
<feOffset dy="4"/>
<feGaussianBlur stdDeviation="2"/>
<feComposite in2="hardAlpha" operator="out"/>
<feColorMatrix type="matrix" values="0 0 0 0 0 0 0 0 0 0 0 0 0 0 0 0 0 0 0.25 0"/>
<feBlend mode="normal" in2="BackgroundImageFix" result="effect1_dropShadow"/>
<feBlend mode="normal" in="SourceGraphic" in2="effect1_dropShadow" result="shape"/>
</filter>
<filter id="filter5_d" x="162.314" y="16.4571" width="20.771" height="19.8584" filterUnits="userSpaceOnUse" color-interpolation-filters="sRGB">
<feFlood flood-opacity="0" result="BackgroundImageFix"/>
<feColorMatrix in="SourceAlpha" type="matrix" values="0 0 0 0 0 0 0 0 0 0 0 0 0 0 0 0 0 0 127 0" result="hardAlpha"/>
<feOffset dy="4"/>
<feGaussianBlur stdDeviation="2"/>
<feComposite in2="hardAlpha" operator="out"/>
<feColorMatrix type="matrix" values="0 0 0 0 0 0 0 0 0 0 0 0 0 0 0 0 0 0 0.25 0"/>
<feBlend mode="normal" in2="BackgroundImageFix" result="effect1_dropShadow"/>
<feBlend mode="normal" in="SourceGraphic" in2="effect1_dropShadow" result="shape"/>
</filter>
<filter id="filter6_d" x="142.469" y="16.4571" width="22.3708" height="19.8522" filterUnits="userSpaceOnUse" color-interpolation-filters="sRGB">
<feFlood flood-opacity="0" result="BackgroundImageFix"/>
<feColorMatrix in="SourceAlpha" type="matrix" values="0 0 0 0 0 0 0 0 0 0 0 0 0 0 0 0 0 0 127 0" result="hardAlpha"/>
<feOffset dy="4"/>
<feGaussianBlur stdDeviation="2"/>
<feComposite in2="hardAlpha" operator="out"/>
<feColorMatrix type="matrix" values="0 0 0 0 0 0 0 0 0 0 0 0 0 0 0 0 0 0 0.25 0"/>
<feBlend mode="normal" in2="BackgroundImageFix" result="effect1_dropShadow"/>
<feBlend mode="normal" in="SourceGraphic" in2="effect1_dropShadow" result="shape"/>
</filter>
<filter id="filter7_d" x="114.774" y="16.4571" width="21.2097" height="19.8522" filterUnits="userSpaceOnUse" color-interpolation-filters="sRGB">
<feFlood flood-opacity="0" result="BackgroundImageFix"/>
<feColorMatrix in="SourceAlpha" type="matrix" values="0 0 0 0 0 0 0 0 0 0 0 0 0 0 0 0 0 0 127 0" result="hardAlpha"/>
<feOffset dy="4"/>
<feGaussianBlur stdDeviation="2"/>
<feComposite in2="hardAlpha" operator="out"/>
<feColorMatrix type="matrix" values="0 0 0 0 0 0 0 0 0 0 0 0 0 0 0 0 0 0 0.25 0"/>
<feBlend mode="normal" in2="BackgroundImageFix" result="effect1_dropShadow"/>
<feBlend mode="normal" in="SourceGraphic" in2="effect1_dropShadow" result="shape"/>
</filter>
<filter id="filter8_d" x="97.3924" y="16.4571" width="19.9138" height="19.8522" filterUnits="userSpaceOnUse" color-interpolation-filters="sRGB">
<feFlood flood-opacity="0" result="BackgroundImageFix"/>
<feColorMatrix in="SourceAlpha" type="matrix" values="0 0 0 0 0 0 0 0 0 0 0 0 0 0 0 0 0 0 127 0" result="hardAlpha"/>
<feOffset dy="4"/>
<feGaussianBlur stdDeviation="2"/>
<feComposite in2="hardAlpha" operator="out"/>
<feColorMatrix type="matrix" values="0 0 0 0 0 0 0 0 0 0 0 0 0 0 0 0 0 0 0.25 0"/>
<feBlend mode="normal" in2="BackgroundImageFix" result="effect1_dropShadow"/>
<feBlend mode="normal" in="SourceGraphic" in2="effect1_dropShadow" result="shape"/>
</filter>
<filter id="filter9_d" x="79.1471" y="16.2329" width="21.4865" height="20.2944" filterUnits="userSpaceOnUse" color-interpolation-filters="sRGB">
<feFlood flood-opacity="0" result="BackgroundImageFix"/>
<feColorMatrix in="SourceAlpha" type="matrix" values="0 0 0 0 0 0 0 0 0 0 0 0 0 0 0 0 0 0 127 0" result="hardAlpha"/>
<feOffset dy="4"/>
<feGaussianBlur stdDeviation="2"/>
<feComposite in2="hardAlpha" operator="out"/>
<feColorMatrix type="matrix" values="0 0 0 0 0 0 0 0 0 0 0 0 0 0 0 0 0 0 0.25 0"/>
<feBlend mode="normal" in2="BackgroundImageFix" result="effect1_dropShadow"/>
<feBlend mode="normal" in="SourceGraphic" in2="effect1_dropShadow" result="shape"/>
</filter>
<filter id="filter10_d" x="63.5479" y="16.4571" width="19.1983" height="19.8522" filterUnits="userSpaceOnUse" color-interpolation-filters="sRGB">
<feFlood flood-opacity="0" result="BackgroundImageFix"/>
<feColorMatrix in="SourceAlpha" type="matrix" values="0 0 0 0 0 0 0 0 0 0 0 0 0 0 0 0 0 0 127 0" result="hardAlpha"/>
<feOffset dy="4"/>
<feGaussianBlur stdDeviation="2"/>
<feComposite in2="hardAlpha" operator="out"/>
<feColorMatrix type="matrix" values="0 0 0 0 0 0 0 0 0 0 0 0 0 0 0 0 0 0 0.25 0"/>
<feBlend mode="normal" in2="BackgroundImageFix" result="effect1_dropShadow"/>
<feBlend mode="normal" in="SourceGraphic" in2="effect1_dropShadow" result="shape"/>
</filter>
<filter id="filter11_d" x="40.2064" y="16.4571" width="25.1248" height="19.8522" filterUnits="userSpaceOnUse" color-interpolation-filters="sRGB">
<feFlood flood-opacity="0" result="BackgroundImageFix"/>
<feColorMatrix in="SourceAlpha" type="matrix" values="0 0 0 0 0 0 0 0 0 0 0 0 0 0 0 0 0 0 127 0" result="hardAlpha"/>
<feOffset dy="4"/>
<feGaussianBlur stdDeviation="2"/>
<feComposite in2="hardAlpha" operator="out"/>
<feColorMatrix type="matrix" values="0 0 0 0 0 0 0 0 0 0 0 0 0 0 0 0 0 0 0.25 0"/>
<feBlend mode="normal" in2="BackgroundImageFix" result="effect1_dropShadow"/>
<feBlend mode="normal" in="SourceGraphic" in2="effect1_dropShadow" result="shape"/>
</filter>
<filter id="filter12_d" x="37.904" y="33.2" width="214.742" height="35.8" filterUnits="userSpaceOnUse" color-interpolation-filters="sRGB">
<feFlood flood-opacity="0" result="BackgroundImageFix"/>
<feColorMatrix in="SourceAlpha" type="matrix" values="0 0 0 0 0 0 0 0 0 0 0 0 0 0 0 0 0 0 127 0" result="hardAlpha"/>
<feOffset dy="3"/>
<feGaussianBlur stdDeviation="3"/>
<feComposite in2="hardAlpha" operator="out"/>
<feColorMatrix type="matrix" values="0 0 0 0 0 0 0 0 0 0 0 0 0 0 0 0 0 0 0.25 0"/>
<feBlend mode="normal" in2="BackgroundImageFix" result="effect1_dropShadow"/>
<feBlend mode="normal" in="SourceGraphic" in2="effect1_dropShadow" result="shape"/>
</filter>
</defs>
</svg>
