<svg width="15" height="15" viewBox="0 0 15 15" fill="none" xmlns="http://www.w3.org/2000/svg">
<g clip-path="url(#clip0)">
<path d="M7.66909 10.2737C6.04292 10.2737 4.72648 8.95648 4.72648 7.33109C4.72648 5.70562 6.04361 4.38848 7.66909 4.38848C9.29449 4.38848 10.6116 5.70549 10.6117 7.33086L7.66909 10.2737ZM7.66909 10.2737C9.29498 10.2737 10.6123 8.95676 10.6117 7.33109L7.66909 10.2737ZM4.40587 7.33109C4.40587 5.5293 5.86578 4.06787 7.66909 4.06787C9.47088 4.06787 10.9323 5.52778 10.9323 7.33109C10.9323 9.13288 9.4724 10.5943 7.66909 10.5943C5.8673 10.5943 4.40587 9.1344 4.40587 7.33109Z" fill="white"/>
<path d="M7.66909 10.2737C6.04292 10.2737 4.72648 8.95648 4.72648 7.33109C4.72648 5.70562 6.04361 4.38848 7.66909 4.38848C9.29449 4.38848 10.6116 5.70549 10.6117 7.33086L7.66909 10.2737ZM7.66909 10.2737C9.29498 10.2737 10.6123 8.95676 10.6117 7.33109L7.66909 10.2737ZM4.40587 7.33109C4.40587 5.5293 5.86578 4.06787 7.66909 4.06787C9.47088 4.06787 10.9323 5.52778 10.9323 7.33109C10.9323 9.13288 9.4724 10.5943 7.66909 10.5943C5.8673 10.5943 4.40587 9.1344 4.40587 7.33109Z" stroke="white"/>
<path d="M7.66909 10.2737C6.04292 10.2737 4.72648 8.95648 4.72648 7.33109C4.72648 5.70562 6.04361 4.38848 7.66909 4.38848C9.29449 4.38848 10.6116 5.70549 10.6117 7.33086L7.66909 10.2737ZM7.66909 10.2737C9.29498 10.2737 10.6123 8.95676 10.6117 7.33109L7.66909 10.2737ZM4.40587 7.33109C4.40587 5.5293 5.86578 4.06787 7.66909 4.06787C9.47088 4.06787 10.9323 5.52778 10.9323 7.33109C10.9323 9.13288 9.4724 10.5943 7.66909 10.5943C5.8673 10.5943 4.40587 9.1344 4.40587 7.33109Z" stroke="white" stroke-opacity="0.2"/>
<path d="M14.454 10.3288L14.454 10.3282C14.5168 8.99477 14.5132 5.66909 14.454 4.33226C14.3972 3.12706 14.0491 2.22372 13.4526 1.60827C12.8584 0.995159 11.9573 0.605427 10.6674 0.546029L10.6903 0.0465579L10.6671 0.546015C9.33404 0.483832 6.00791 0.486804 4.67108 0.546039C3.55185 0.598567 2.64661 0.863955 1.92429 1.58628C1.32009 2.19048 1.04433 2.90232 0.922486 3.83062C0.823764 4.58276 0.82962 5.4339 0.836652 6.45607C0.838568 6.73454 0.840572 7.02569 0.840572 7.331C0.840572 7.6152 0.839113 7.88675 0.837715 8.14682C0.831952 9.21955 0.827237 10.0971 0.930286 10.8623C1.05446 11.7843 1.32963 12.481 1.92422 13.0757C1.92424 13.0757 1.92427 13.0757 1.92429 13.0757M14.454 10.3288L12.4693 14.2744C11.4748 14.6595 10.504 14.6595 7.70881 14.6594H7.66902C7.37432 14.6594 7.08909 14.6616 6.81293 14.6636C4.50802 14.6807 2.83518 14.6932 1.57074 13.4293L1.92429 13.0757M14.454 10.3288C14.4073 11.3448 14.1473 12.0994 13.7704 12.6512C13.3946 13.2012 12.8839 13.5771 12.2888 13.8082L14.454 10.3288ZM1.92429 13.0757C2.53052 13.6817 3.24992 13.9579 4.18256 14.0793C4.93389 14.1771 5.78 14.171 6.78746 14.1636C7.06829 14.1616 7.36167 14.1594 7.66902 14.1594C10.5382 14.1594 11.3979 14.153 12.2883 13.8083L1.92429 13.0757ZM4.65753 0.83998L4.65753 0.839918L4.64961 0.840323C3.74706 0.88655 3.03288 1.08559 2.48711 1.46061C1.93235 1.84182 1.60155 2.37038 1.40724 2.97682C1.21686 3.57102 1.15293 4.25367 1.13209 4.9721C1.11851 5.44019 1.12316 5.95036 1.12797 6.4783C1.1305 6.75555 1.13307 7.03769 1.13307 7.32122C1.13307 7.65104 1.12956 7.97161 1.12617 8.28134C1.11711 9.10971 1.10889 9.86054 1.1709 10.5035C1.25804 11.4069 1.49004 12.2103 2.12303 12.8407C2.67417 13.393 3.32328 13.6356 4.19081 13.7449C4.94888 13.8403 5.92938 13.8395 7.22179 13.8385C7.36129 13.8383 7.50442 13.8382 7.65129 13.8382C7.88134 13.8382 8.10261 13.8388 8.31546 13.8393C9.45361 13.842 10.3512 13.8442 11.0633 13.7605C11.9363 13.6578 12.6105 13.4189 13.1797 12.8497L12.8262 12.4961L13.1806 12.8488C13.7384 12.2884 13.9811 11.6332 14.0889 10.765C14.1807 10.0251 14.1797 9.0774 14.1784 7.8433C14.1782 7.67759 14.178 7.50672 14.1781 7.33049V7.33039C14.1781 5.37119 14.1701 5.13015 14.1348 4.34583L14.1348 4.34572C14.0938 3.43943 13.8898 2.72281 13.5057 2.17566C13.1166 1.62134 12.5784 1.29172 11.9678 1.09779C11.3681 0.907324 10.683 0.84259 9.96956 0.821216C9.50028 0.807156 8.99231 0.811768 8.47226 0.816489C8.25671 0.818446 8.03908 0.820421 7.82127 0.821094L7.79413 0.803002H7.64274C5.70401 0.803002 5.45014 0.811973 4.68681 0.838946L4.65753 0.83998Z" fill="white"/>
<path d="M14.454 10.3288L14.454 10.3282C14.5168 8.99477 14.5132 5.66909 14.454 4.33226C14.3972 3.12706 14.0491 2.22372 13.4526 1.60827C12.8584 0.995159 11.9573 0.605427 10.6674 0.546029L10.6903 0.0465579L10.6671 0.546015C9.33404 0.483832 6.00791 0.486804 4.67108 0.546039C3.55185 0.598567 2.64661 0.863955 1.92429 1.58628C1.32009 2.19048 1.04433 2.90232 0.922486 3.83062C0.823764 4.58276 0.82962 5.4339 0.836652 6.45607C0.838568 6.73454 0.840572 7.02569 0.840572 7.331C0.840572 7.6152 0.839113 7.88675 0.837715 8.14682C0.831952 9.21955 0.827237 10.0971 0.930286 10.8623C1.05446 11.7843 1.32963 12.481 1.92422 13.0757C1.92424 13.0757 1.92427 13.0757 1.92429 13.0757M14.454 10.3288L12.4693 14.2744C11.4748 14.6595 10.504 14.6595 7.70881 14.6594H7.66902C7.37432 14.6594 7.08909 14.6616 6.81293 14.6636C4.50802 14.6807 2.83518 14.6932 1.57074 13.4293L1.92429 13.0757M14.454 10.3288C14.4073 11.3448 14.1473 12.0994 13.7704 12.6512C13.3946 13.2012 12.8839 13.5771 12.2888 13.8082L14.454 10.3288ZM1.92429 13.0757C2.53052 13.6817 3.24992 13.9579 4.18256 14.0793C4.93389 14.1771 5.78 14.171 6.78746 14.1636C7.06829 14.1616 7.36167 14.1594 7.66902 14.1594C10.5382 14.1594 11.3979 14.153 12.2883 13.8083L1.92429 13.0757ZM4.65753 0.83998L4.65753 0.839918L4.64961 0.840323C3.74706 0.88655 3.03288 1.08559 2.48711 1.46061C1.93235 1.84182 1.60155 2.37038 1.40724 2.97682C1.21686 3.57102 1.15293 4.25367 1.13209 4.9721C1.11851 5.44019 1.12316 5.95036 1.12797 6.4783C1.1305 6.75555 1.13307 7.03769 1.13307 7.32122C1.13307 7.65104 1.12956 7.97161 1.12617 8.28134C1.11711 9.10971 1.10889 9.86054 1.1709 10.5035C1.25804 11.4069 1.49004 12.2103 2.12303 12.8407C2.67417 13.393 3.32328 13.6356 4.19081 13.7449C4.94888 13.8403 5.92938 13.8395 7.22179 13.8385C7.36129 13.8383 7.50442 13.8382 7.65129 13.8382C7.88134 13.8382 8.10261 13.8388 8.31546 13.8393C9.45361 13.842 10.3512 13.8442 11.0633 13.7605C11.9363 13.6578 12.6105 13.4189 13.1797 12.8497L12.8262 12.4961L13.1806 12.8488C13.7384 12.2884 13.9811 11.6332 14.0889 10.765C14.1807 10.0251 14.1797 9.0774 14.1784 7.8433C14.1782 7.67759 14.178 7.50672 14.1781 7.33049V7.33039C14.1781 5.37119 14.1701 5.13015 14.1348 4.34583L14.1348 4.34572C14.0938 3.43943 13.8898 2.72281 13.5057 2.17566C13.1166 1.62134 12.5784 1.29172 11.9678 1.09779C11.3681 0.907324 10.683 0.84259 9.96956 0.821216C9.50028 0.807156 8.99231 0.811768 8.47226 0.816489C8.25671 0.818446 8.03908 0.820421 7.82127 0.821094L7.79413 0.803002H7.64274C5.70401 0.803002 5.45014 0.811973 4.68681 0.838946L4.65753 0.83998Z" stroke="white"/>
<path d="M14.454 10.3288L14.454 10.3282C14.5168 8.99477 14.5132 5.66909 14.454 4.33226C14.3972 3.12706 14.0491 2.22372 13.4526 1.60827C12.8584 0.995159 11.9573 0.605427 10.6674 0.546029L10.6903 0.0465579L10.6671 0.546015C9.33404 0.483832 6.00791 0.486804 4.67108 0.546039C3.55185 0.598567 2.64661 0.863955 1.92429 1.58628C1.32009 2.19048 1.04433 2.90232 0.922486 3.83062C0.823764 4.58276 0.82962 5.4339 0.836652 6.45607C0.838568 6.73454 0.840572 7.02569 0.840572 7.331C0.840572 7.6152 0.839113 7.88675 0.837715 8.14682C0.831952 9.21955 0.827237 10.0971 0.930286 10.8623C1.05446 11.7843 1.32963 12.481 1.92422 13.0757C1.92424 13.0757 1.92427 13.0757 1.92429 13.0757M14.454 10.3288L12.4693 14.2744C11.4748 14.6595 10.504 14.6595 7.70881 14.6594H7.66902C7.37432 14.6594 7.08909 14.6616 6.81293 14.6636C4.50802 14.6807 2.83518 14.6932 1.57074 13.4293L1.92429 13.0757M14.454 10.3288C14.4073 11.3448 14.1473 12.0994 13.7704 12.6512C13.3946 13.2012 12.8839 13.5771 12.2888 13.8082L14.454 10.3288ZM1.92429 13.0757C2.53052 13.6817 3.24992 13.9579 4.18256 14.0793C4.93389 14.1771 5.78 14.171 6.78746 14.1636C7.06829 14.1616 7.36167 14.1594 7.66902 14.1594C10.5382 14.1594 11.3979 14.153 12.2883 13.8083L1.92429 13.0757ZM4.65753 0.83998L4.65753 0.839918L4.64961 0.840323C3.74706 0.88655 3.03288 1.08559 2.48711 1.46061C1.93235 1.84182 1.60155 2.37038 1.40724 2.97682C1.21686 3.57102 1.15293 4.25367 1.13209 4.9721C1.11851 5.44019 1.12316 5.95036 1.12797 6.4783C1.1305 6.75555 1.13307 7.03769 1.13307 7.32122C1.13307 7.65104 1.12956 7.97161 1.12617 8.28134C1.11711 9.10971 1.10889 9.86054 1.1709 10.5035C1.25804 11.4069 1.49004 12.2103 2.12303 12.8407C2.67417 13.393 3.32328 13.6356 4.19081 13.7449C4.94888 13.8403 5.92938 13.8395 7.22179 13.8385C7.36129 13.8383 7.50442 13.8382 7.65129 13.8382C7.88134 13.8382 8.10261 13.8388 8.31546 13.8393C9.45361 13.842 10.3512 13.8442 11.0633 13.7605C11.9363 13.6578 12.6105 13.4189 13.1797 12.8497L12.8262 12.4961L13.1806 12.8488C13.7384 12.2884 13.9811 11.6332 14.0889 10.765C14.1807 10.0251 14.1797 9.0774 14.1784 7.8433C14.1782 7.67759 14.178 7.50672 14.1781 7.33049V7.33039C14.1781 5.37119 14.1701 5.13015 14.1348 4.34583L14.1348 4.34572C14.0938 3.43943 13.8898 2.72281 13.5057 2.17566C13.1166 1.62134 12.5784 1.29172 11.9678 1.09779C11.3681 0.907324 10.683 0.84259 9.96956 0.821216C9.50028 0.807156 8.99231 0.811768 8.47226 0.816489C8.25671 0.818446 8.03908 0.820421 7.82127 0.821094L7.79413 0.803002H7.64274C5.70401 0.803002 5.45014 0.811973 4.68681 0.838946L4.65753 0.83998Z" stroke="white" stroke-opacity="0.2"/>
<path d="M11.9608 3.41943C11.9608 3.62896 11.791 3.79882 11.5814 3.79882C11.3719 3.79882 11.202 3.62896 11.202 3.41943C11.202 3.2099 11.3719 3.04004 11.5814 3.04004C11.791 3.04004 11.9608 3.2099 11.9608 3.41943Z" fill="white"/>
<path d="M11.9608 3.41943C11.9608 3.62896 11.791 3.79882 11.5814 3.79882C11.3719 3.79882 11.202 3.62896 11.202 3.41943C11.202 3.2099 11.3719 3.04004 11.5814 3.04004C11.791 3.04004 11.9608 3.2099 11.9608 3.41943Z" stroke="white"/>
<path d="M11.9608 3.41943C11.9608 3.62896 11.791 3.79882 11.5814 3.79882C11.3719 3.79882 11.202 3.62896 11.202 3.41943C11.202 3.2099 11.3719 3.04004 11.5814 3.04004C11.791 3.04004 11.9608 3.2099 11.9608 3.41943Z" stroke="white" stroke-opacity="0.2"/>
</g>
<defs>
<clipPath id="clip0">
<rect width="14.6667" height="14.6667" fill="white" transform="translate(0.333313)"/>
</clipPath>
</defs>
</svg>
